<?xml version="1.0" encoding="UTF-8" standalone="no"?>
<svg width="100px" height="20px" viewBox="0 0 100 20" version="1.1" xmlns="http://www.w3.org/2000/svg" xmlns:xlink="http://www.w3.org/1999/xlink" xmlns:sketch="http://www.bohemiancoding.com/sketch/ns">
    <!-- Generator: Sketch 3.3.2 (12043) - http://www.bohemiancoding.com/sketch -->
    <title>BINARY  + EDGE</title>
    <desc>Created with Sketch.</desc>
    <defs></defs>
    <g id="Welcome" stroke="none" stroke-width="1" fill="none" fill-rule="evenodd" sketch:type="MSPage">
        <g id="Desktop-HD---Home" sketch:type="MSArtboardGroup" transform="translate(-200.000000, -75.000000)" fill="#FFFFFF">
            <g id="Header" sketch:type="MSLayerGroup" transform="translate(120.000000, 60.000000)">
                <g id="Logo" sketch:type="MSShapeGroup">
                    <g id="BINARY--+-EDGE" transform="translate(80.000000, 15.000000)">
                        <path d="M0,20 L3.39041096,20 C6.06925419,20 7.65981735,18.0085349 7.65981735,14.4807966 C7.65981735,11.8634424 6.69710807,9.98577525 5.48325723,9.44523471 L5.48325723,9.3883357 C6.38318113,8.64864865 7.19939117,7.19772404 7.19939117,5.00711238 C7.19939117,1.84921764 5.60882801,0 3.49505327,0 L0,0 L0,20 Z M1.402207,8.67709815 L1.402207,1.70697013 L3.43226788,1.70697013 C4.83447489,1.70697013 5.75532725,3.04409673 5.75532725,5.14935989 C5.75532725,7.28307255 4.83447489,8.67709815 3.74619482,8.67709815 L1.402207,8.67709815 Z M1.402207,18.2645804 L1.402207,10.3556188 L3.89269406,10.3556188 C5.16933029,10.3556188 6.21575342,11.8349929 6.21575342,14.4238976 C6.21575342,16.7567568 5.35768645,18.2645804 3.32762557,18.2645804 L1.402207,18.2645804 Z M10.129376,20 L11.531583,20 L11.531583,0 L10.129376,0 L10.129376,20 Z M14.7127093,20 L16.0730594,20 L16.0730594,5.83214794 C16.0730594,4.77951636 15.968417,3.12944523 15.968417,3.12944523 L16.010274,3.12944523 C16.010274,3.12944523 16.4497717,4.75106686 16.826484,5.77524893 L22.2888128,20 L23.7119482,20 L23.7119482,0 L22.3725266,0 L22.3725266,14.0825036 C22.3725266,15.1351351 22.4771689,16.7567568 22.4771689,16.7567568 L22.435312,16.7567568 C22.435312,16.7567568 21.9958143,15.1351351 21.5981735,14.1394026 L16.1358447,0 L14.7127093,0 L14.7127093,20 Z M25.6582953,20 L27.0814307,20 L28.6040582,11.9688498 L32.6484018,13.6273115 L33.9250381,20 L35.3481735,20 L31.2461948,0 L29.7393455,0 L25.6582953,20 Z M28.630137,11.9487909 L30.0742009,4.69416785 C30.2625571,3.72688478 30.4718417,2.07681366 30.4718417,2.07681366 L30.5346271,2.07681366 C30.5346271,2.07681366 30.7439117,3.75533428 30.9322679,4.69416785 L32.3763318,11.9487909 L28.630137,11.9487909 Z M37.2735921,20 L38.6757991,20 L38.6757991,11.5789474 L41.3127854,11.5789474 L43.8451294,20 L45.3938356,20 L42.8614916,11.9487909 C42.7149924,11.4651494 42.5475647,11.0668563 42.5475647,11.0668563 L42.5475647,11.0099573 C43.5730594,10.3271693 44.8496956,8.62019915 44.8496956,5.63300142 C44.8496956,3.24324324 44.0753425,1.45092461 42.9661339,0.654338549 C42.3382801,0.170697013 41.5429985,0 41.0197869,0 L37.2735921,0 L37.2735921,20 Z M38.6757991,9.84352774 L38.6757991,1.73541963 L40.8523592,1.73541963 C41.3127854,1.73541963 41.9406393,1.96301565 42.3382801,2.33285917 C43.0289193,2.93029872 43.4265601,4.18207681 43.4265601,5.68990043 C43.4265601,8.30725462 42.1499239,9.84352774 40.9360731,9.84352774 L38.6757991,9.84352774 Z M49.7888128,20 L51.1700913,20 L51.1700913,11.4082504 L55,0 L53.4722222,0 L51.1700913,7.25462304 C50.8352359,8.30725462 50.5003805,9.58748222 50.5003805,9.58748222 L50.4585236,9.58748222 C50.4585236,9.58748222 50.1445967,8.30725462 49.8306697,7.25462304 L47.5076104,0 L45.9589041,0 L49.7888128,11.4082504 L49.7888128,20 Z" id="BINARY-"></path>
                        <path d="M60,19.6730245 L67.0957932,19.6730245 L67.0957932,16.7302452 L62.4733908,16.7302452 L62.4733908,11.3896458 L66.0010137,11.3896458 L66.0010137,8.44686649 L62.4733908,8.44686649 L62.4733908,3.26975477 L66.8525089,3.26975477 L66.8525089,0.326975477 L60,0.326975477 L60,19.6730245 Z M68.9609731,19.6730245 L72.954891,19.6730245 C76.5027876,19.6730245 78.7531678,16.0762943 78.7531678,9.97275204 C78.7531678,3.86920981 76.5027876,0.326975477 72.954891,0.326975477 L68.9609731,0.326975477 L68.9609731,19.6730245 Z M71.4343639,16.7029973 L71.4343639,3.29700272 L72.8535226,3.29700272 C74.9214394,3.29700272 76.1986822,5.61307902 76.1986822,9.97275204 C76.1986822,14.359673 74.9619868,16.7029973 72.8535226,16.7029973 L71.4343639,16.7029973 Z M80.1520527,10.0544959 C80.1520527,16.3215259 82.8890015,20 85.8084136,20 C87.0856564,20 88.241257,19.2643052 88.8291941,18.2288828 L88.8697415,18.2288828 C88.8697415,18.2288828 88.8291941,18.6376022 88.8291941,18.9645777 L88.8291941,19.6730245 L90.7754688,19.6730245 L90.7754688,9.45504087 L86.9640142,9.45504087 L86.9640142,12.3978202 L88.5859098,12.3978202 L88.5859098,15.4495913 C88.03852,16.3487738 87.1667511,16.8119891 86.2747086,16.8119891 C84.2270654,16.8119891 82.6862646,14.1144414 82.6862646,9.94550409 C82.6862646,5.96730245 84.0243284,3.13351499 86.4774455,3.13351499 C87.511404,3.13351499 88.4845413,3.67847411 89.1332995,4.49591281 L90.1875317,1.6893733 C89.1738469,0.599455041 87.7141409,0 86.376077,0 C82.6051698,0 80.1520527,4.03269755 80.1520527,10.0544959 L80.1520527,10.0544959 Z M92.9042068,19.6730245 L100,19.6730245 L100,16.7302452 L95.3775976,16.7302452 L95.3775976,11.3896458 L98.9052205,11.3896458 L98.9052205,8.44686649 L95.3775976,8.44686649 L95.3775976,3.26975477 L99.7567157,3.26975477 L99.7567157,0.326975477 L92.9042068,0.326975477 L92.9042068,19.6730245 Z" id="EDGE"></path>
                    </g>
                </g>
            </g>
        </g>
    </g>
</svg>