<?xml version="1.0" encoding="UTF-8" standalone="no"?>
<svg width="20px" height="20px" viewBox="0 0 20 20" version="1.1" xmlns="http://www.w3.org/2000/svg" xmlns:xlink="http://www.w3.org/1999/xlink" xmlns:sketch="http://www.bohemiancoding.com/sketch/ns">
    <!-- Generator: Sketch 3.3.2 (12043) - http://www.bohemiancoding.com/sketch -->
    <title>call</title>
    <desc>Created with Sketch.</desc>
    <defs></defs>
    <g id="Welcome" stroke="none" stroke-width="1" fill="none" fill-rule="evenodd" sketch:type="MSPage">
        <g id="Desktop-HD---TEAM-Copy" sketch:type="MSArtboardGroup" transform="translate(-840.000000, -720.000000)" fill="#9B9B9B">
            <g id="call" sketch:type="MSLayerGroup" transform="translate(840.000000, 720.000000)">
                <path d="M4,8.66666667 C5.55555556,11.7777778 8.22222222,14.3333333 11.3333333,16 L13.7777778,13.5555556 C14.1111111,13.2222222 14.5555556,13.1111111 14.8888889,13.3333333 C16.1111111,13.7777778 17.4444444,14 18.8888889,14 C19.5555556,14 20,14.4444444 20,15.1111111 L20,18.8888889 C20,19.5555556 19.5555556,20 18.8888889,20 C8.44444444,20 0,11.5555556 0,1.11111111 C0,0.444444444 0.444444444,0 1.11111111,0 L5,0 C5.66666667,0 6.11111111,0.444444444 6.11111111,1.11111111 C6.11111111,2.44444444 6.33333333,3.77777778 6.77777778,5.11111111 C6.88888889,5.44444444 6.77777778,5.88888889 6.55555556,6.22222222 L4,8.66666667 L4,8.66666667 Z" id="Shape" sketch:type="MSShapeGroup"></path>
            </g>
        </g>
    </g>
</svg>