<?xml version="1.0" encoding="UTF-8" standalone="no"?>
<svg width="55px" height="50px" viewBox="0 0 55 50" version="1.1" xmlns="http://www.w3.org/2000/svg" xmlns:xlink="http://www.w3.org/1999/xlink" xmlns:sketch="http://www.bohemiancoding.com/sketch/ns">
    <!-- Generator: Sketch 3.3.2 (12043) - http://www.bohemiancoding.com/sketch -->
    <title>Logo</title>
    <desc>Created with Sketch.</desc>
    <defs></defs>
    <g id="Welcome" stroke="none" stroke-width="1" fill="none" fill-rule="evenodd" sketch:type="MSPage">
        <g id="Desktop-HD---Home" sketch:type="MSArtboardGroup" transform="translate(-120.000000, -60.000000)" fill="#FFFFFF">
            <g id="Header" sketch:type="MSLayerGroup" transform="translate(120.000000, 60.000000)">
                <g id="Logo" sketch:type="MSShapeGroup">
                    <path d="M16.6621875,50 C14.6096875,50 12.7176875,48.7405 11.7166875,46.9735 L0.7194375,27.47775 C-0.2398125,25.7845 -0.2398125,23.68075 0.7194375,21.9875 L11.7166875,2.718 C12.7176875,0.951 14.6096875,0 16.6621875,0 L38.3376875,0 C40.3901875,0 42.2821875,0.93025 43.2831875,2.6975 L54.2804375,22.0285 C55.2396875,23.72175 55.2396875,25.7435 54.2804375,27.43675 L43.2831875,46.994 C42.2821875,48.76125 40.3901875,50 38.3376875,50 L16.6621875,50 Z M28.4999375,21 C28.4999375,20.44775 28.9476875,20 29.4999375,20 L36.4999375,20 C36.4999375,21.1045 35.6044375,22 34.4999375,22 L30.4999375,22 L30.4999375,24 L33.4999375,24 C34.0521875,24 34.4999375,24.44775 34.4999375,25 C34.4999375,25.55225 34.0521875,26 33.4999375,26 L30.4999375,26 L30.4999375,28 L34.4999375,28 C35.6044375,28 36.4999375,28.8955 36.4999375,30 L29.5061875,30 C28.9504375,30 28.4999375,29.5495 28.4999375,28.99375 L28.4999375,21 Z M27.4999375,23 C27.4999375,21.34325 26.1566875,20 24.4999375,20 L18.4999375,20 C18.4999375,21 19.3954375,22 20.4999375,22 L24.4999375,22 L24.4999375,21 L26.4999375,23 L24.4999375,25 L24.4999375,24 L19.3966875,24.00525 C18.8929375,24.057 18.4999375,24.4825 18.4999375,25 C18.4999375,25.55225 18.9476875,26 19.4999375,26 L24.4656875,26 C24.9981875,26 25.4634375,26.402 25.4976875,26.9335 C25.5354375,27.51575 25.0741875,28 24.4999375,28 L20.4999375,28 C19.3954375,28 18.4999375,28.8955 18.4999375,30 L24.4999375,30 C26.1566875,30 27.4999375,28.65675 27.4999375,27 C27.4999375,26.2315 27.2106875,25.53075 26.7354375,25 C27.2106875,24.46925 27.4999375,23.7685 27.4999375,23 Z"></path>
                </g>
            </g>
        </g>
    </g>
</svg>