<?xml version="1.0" encoding="utf-8"?>
<!-- Generator: Adobe Illustrator 18.1.1, SVG Export Plug-In . SVG Version: 6.00 Build 0)  -->
<svg version="1.1" id="Layer_1" xmlns="http://www.w3.org/2000/svg" xmlns:xlink="http://www.w3.org/1999/xlink" x="0px" y="0px"
	 viewBox="0 0 220 200" enable-background="new 0 0 220 200" xml:space="preserve">
<path fill="#E53935" d="M217.1,87.4l-44-77.1C169.1,3.2,161.6,0,153.4,0H66.6c-8.2,0-15.8,3.4-19.8,10.4l-44,76.6
	c-3.8,6.8-3.8,15.3,0,22.1l44,78.2c4,7.1,11.6,12.6,19.8,12.6h86.7c8.2,0,15.8-5.4,19.8-12.5l44-78.7C221,102.1,221,94.1,217.1,87.4
	z M108,108c0,6.6-5.7,12-12.3,12H68v0c0-4.4,3.6-8,8-8h8.7h11.2c2.1,0,4-1.6,4.1-3.7c0.2-2.3-1.7-4.3-4-4.3H84.7H76h-4
	c-2.2,0-4-1.8-4-4c0-2.2,1.8-4,4-4h4h8.7h11.2c2.1,0,4-1.6,4.1-3.7c0.2-2.3-1.7-4.3-4-4.3H84.7H76c-4.4,0-8-3.6-8-8h27.7
	c6.6,0,12.3,5.4,12.3,12c0,3.1-1.2,5.9-3.1,8C106.8,102.1,108,104.9,108,108z M124.1,96h11.2h8.7h4c2.2,0,4,1.8,4,4c0,2.2-1.8,4-4,4
	h-4h-8.7H124c-2.3,0-4.1,1.9-4,4.3c0.1,2.1,2,3.7,4.1,3.7h11.2h8.7c4.4,0,8,3.6,8,8v0h-27.7c-6.6,0-12.3-5.4-12.3-12
	c0-3.1,1.2-5.9,3.1-8c-1.9-2.1-3.1-4.9-3.1-8c0-6.6,5.7-12,12.3-12H152c0,4.4-3.6,8-8,8h-8.7H124c-2.3,0-4.1,1.9-4,4.3
	C120.1,94.4,122,96,124.1,96z"/>
</svg>
