<?xml version="1.0" encoding="utf-8"?>
<!-- Generator: Adobe Illustrator 18.1.1, SVG Export Plug-In . SVG Version: 6.00 Build 0)  -->
<svg version="1.1" id="Layer_1" xmlns="http://www.w3.org/2000/svg" xmlns:xlink="http://www.w3.org/1999/xlink" x="0px" y="0px"
	 viewBox="0 0 210 100" enable-background="new 0 0 210 100" xml:space="preserve">
<g>
	<path fill="#E53935" d="M140,60h28.3H190h10c5.5,0,10-4.5,10-10c0-5.5-4.5-10-10-10h-10h-21.7h-27.9c-5.3,0-10-4-10.3-9.3
		c-0.4-5.8,4.2-10.7,10-10.7h28.3H190c11,0,20-9,20-20h-69.3C124.2,0,110,13.5,110,30c0,7.7,2.9,14.7,7.6,20
		c-4.8,5.3-7.7,12.3-7.6,20c0,16.5,14.2,30,30.7,30H210v0c0-11-9-20-20-20h-21.7h-27.9c-5.3,0-10-4-10.3-9.3
		C129.6,64.8,134.3,60,140,60z"/>
	<path fill="#E53935" d="M70,60H41.7H20H10C4.5,60,0,55.5,0,50c0-5.5,4.5-10,10-10h10h21.7h27.9c5.3,0,10-4,10.3-9.3
		C80.4,24.8,75.7,20,70,20H41.7H20C9,20,0,11,0,0h69.3C85.8,0,100,13.5,100,30c0,7.7-2.9,14.7-7.6,20c4.8,5.3,7.7,12.3,7.6,20
		c0,16.5-14.2,30-30.7,30H0v0c0-11,9-20,20-20h21.7h27.9c5.3,0,10-4,10.3-9.3C80.4,64.8,75.7,60,70,60z"/>
</g>
</svg>
