<?xml version="1.0" encoding="UTF-8" standalone="no"?>
<svg width="648px" height="48px" viewBox="0 0 648 48" version="1.1" xmlns="http://www.w3.org/2000/svg" xmlns:xlink="http://www.w3.org/1999/xlink" xmlns:sketch="http://www.bohemiancoding.com/sketch/ns">
    <!-- Generator: Sketch 3.3.2 (12043) - http://www.bohemiancoding.com/sketch -->
    <title>Be Ready. Be Safe. B</title>
    <desc>Created with Sketch.</desc>
    <defs></defs>
    <g id="Welcome" stroke="none" stroke-width="1" fill="none" fill-rule="evenodd" sketch:type="MSPage">
        <g id="Desktop-HD---Home" sketch:type="MSArtboardGroup" transform="translate(-397.000000, -478.000000)" fill="#FFFFFF">
            <path d="M417.364,496.576 C419.812,495.472 422.068,493.168 422.068,489.184 C422.068,484 418.324,480.496 411.316,480.496 L399.988,480.496 C398.788,480.496 397.828,481.504 397.828,482.704 L397.828,511.84 C397.828,513.04 398.788,514 399.988,514 L411.604,514 C420.484,514 423.94,510.208 423.94,504.592 C423.94,500.176 420.82,497.68 417.364,496.576 L417.364,496.576 Z M417.892,489.52 C417.892,492.64 416.212,494.992 410.164,494.992 L402.196,494.992 L402.196,484.576 L410.98,484.576 C415.348,484.576 417.892,486.544 417.892,489.52 L417.892,489.52 Z M411.172,509.92 L402.196,509.92 L402.196,498.928 L411.22,498.928 C416.74,498.928 419.716,500.608 419.716,504.4 C419.716,507.664 417.748,509.92 411.172,509.92 L411.172,509.92 Z M447.708,508.72 C447.372,508.72 447.132,508.768 446.844,508.912 C445.068,509.824 443.244,510.4 440.364,510.4 C435.18,510.4 432.444,507.616 431.964,503.296 L448.236,503.296 C449.58,503.296 450.444,502.336 450.444,501.136 C450.444,494.752 446.412,489.04 439.02,489.04 C431.052,489.04 427.548,495.28 427.548,501.76 C427.548,509.824 432.156,514.48 439.98,514.48 C444.156,514.48 446.268,513.568 448.38,512.368 C449.052,511.984 449.628,511.36 449.628,510.592 C449.628,509.488 448.716,508.72 447.708,508.72 L447.708,508.72 Z M439.02,492.736 C442.092,492.736 445.836,494.752 446.124,499.744 L431.964,499.744 C432.252,494.752 435.948,492.736 439.02,492.736 L439.02,492.736 Z M493.804,509.872 C493.804,507.184 493.132,500.32 487.804,498.928 C492.028,497.488 494.092,493.936 494.092,490.24 C494.092,484.72 490.156,480.496 481.036,480.496 L469.852,480.496 C468.652,480.496 467.692,481.504 467.692,482.704 L467.692,512.08 C467.692,513.28 468.652,514.24 469.852,514.24 C471.052,514.24 472.06,513.28 472.06,512.08 L472.06,500.944 L481.996,500.944 C489.244,500.944 489.436,507.472 489.436,510.64 L489.436,512.08 C489.436,513.376 490.3,514.24 491.644,514.24 C492.844,514.24 493.804,513.28 493.804,512.08 L493.804,509.872 Z M480.748,496.816 L472.06,496.816 L472.06,484.624 L480.508,484.624 C487.612,484.624 489.724,487.024 489.724,490.576 C489.724,494.656 486.124,496.816 480.748,496.816 L480.748,496.816 Z M518.724,508.72 C518.388,508.72 518.148,508.768 517.86,508.912 C516.084,509.824 514.26,510.4 511.38,510.4 C506.196,510.4 503.46,507.616 502.98,503.296 L519.252,503.296 C520.596,503.296 521.46,502.336 521.46,501.136 C521.46,494.752 517.428,489.04 510.036,489.04 C502.068,489.04 498.564,495.28 498.564,501.76 C498.564,509.824 503.172,514.48 510.996,514.48 C515.172,514.48 517.284,513.568 519.396,512.368 C520.068,511.984 520.644,511.36 520.644,510.592 C520.644,509.488 519.732,508.72 518.724,508.72 L518.724,508.72 Z M510.036,492.736 C513.108,492.736 516.852,494.752 517.14,499.744 L502.98,499.744 C503.268,494.752 506.964,492.736 510.036,492.736 L510.036,492.736 Z M535.58,489.04 C532.172,489.04 529.532,489.808 527.276,490.768 C526.46,491.104 526.028,491.776 526.028,492.592 C526.028,493.648 526.844,494.416 527.804,494.416 C527.996,494.416 528.236,494.368 528.428,494.32 C530.204,493.744 532.124,493.168 534.812,493.168 C539.132,493.168 541.244,494.848 541.244,499.12 L541.244,499.504 L535.436,499.504 C527.948,499.504 524.396,502.768 524.396,507.28 C524.396,511.792 528.044,514.48 532.22,514.48 C536.732,514.48 539.516,512.608 541.244,510.832 L541.244,512.08 C541.244,513.28 542.204,514.24 543.404,514.24 C544.604,514.24 545.612,513.28 545.612,512.08 L545.612,498.496 C545.612,493.792 542.588,489.04 535.58,489.04 L535.58,489.04 Z M533.852,510.64 C529.964,510.64 528.764,508.864 528.764,506.8 C528.764,504.064 531.5,503.008 536.012,503.008 L541.244,503.008 L541.244,507.04 C539.612,508.912 536.828,510.64 533.852,510.64 L533.852,510.64 Z M562.132,489.04 C556.324,489.04 550.516,493.6 550.516,501.76 C550.516,509.92 556.324,514.48 562.132,514.48 C565.492,514.48 568.132,513.136 570.34,510.832 L570.34,512.08 C570.34,513.28 571.3,514.24 572.548,514.24 C573.748,514.24 574.708,513.28 574.708,512.08 L574.708,480.928 C574.708,479.68 573.748,478.72 572.548,478.72 C571.3,478.72 570.34,479.68 570.34,480.928 L570.34,492.688 C568.132,490.384 565.492,489.04 562.132,489.04 L562.132,489.04 Z M562.756,510.4 C558.196,510.4 554.884,507.424 554.884,501.76 C554.884,496.096 558.196,493.12 562.756,493.12 C565.876,493.12 568.468,494.656 570.34,496.72 L570.34,506.8 C568.468,508.864 565.876,510.4 562.756,510.4 L562.756,510.4 Z M601.932,491.488 C601.932,490.288 600.972,489.28 599.772,489.28 C598.812,489.28 598.14,489.856 597.756,490.72 L590.22,508.96 L582.828,490.624 C582.492,489.856 581.724,489.28 580.812,489.28 C579.612,489.28 578.652,490.288 578.652,491.488 C578.652,491.824 578.748,492.16 578.844,492.4 L587.868,514.384 L584.748,522.4 C584.652,522.64 584.604,522.928 584.604,523.168 C584.604,524.32 585.516,525.28 586.668,525.28 C587.676,525.28 588.3,524.656 588.684,523.792 L601.788,492.304 C601.884,492.064 601.932,491.776 601.932,491.488 L601.932,491.488 Z M607.22,508.48 L606.74,508.48 C605.252,508.48 604.052,509.68 604.052,511.168 L604.052,511.456 C604.052,512.944 605.252,514.144 606.74,514.144 L607.22,514.144 C608.708,514.144 609.908,512.944 609.908,511.456 L609.908,511.168 C609.908,509.68 608.708,508.48 607.22,508.48 L607.22,508.48 Z M647.892,496.576 C650.34,495.472 652.596,493.168 652.596,489.184 C652.596,484 648.852,480.496 641.844,480.496 L630.516,480.496 C629.316,480.496 628.356,481.504 628.356,482.704 L628.356,511.84 C628.356,513.04 629.316,514 630.516,514 L642.132,514 C651.012,514 654.468,510.208 654.468,504.592 C654.468,500.176 651.348,497.68 647.892,496.576 L647.892,496.576 Z M648.42,489.52 C648.42,492.64 646.74,494.992 640.692,494.992 L632.724,494.992 L632.724,484.576 L641.508,484.576 C645.876,484.576 648.42,486.544 648.42,489.52 L648.42,489.52 Z M641.7,509.92 L632.724,509.92 L632.724,498.928 L641.748,498.928 C647.268,498.928 650.244,500.608 650.244,504.4 C650.244,507.664 648.276,509.92 641.7,509.92 L641.7,509.92 Z M678.236,508.72 C677.9,508.72 677.66,508.768 677.372,508.912 C675.596,509.824 673.772,510.4 670.892,510.4 C665.708,510.4 662.972,507.616 662.492,503.296 L678.764,503.296 C680.108,503.296 680.972,502.336 680.972,501.136 C680.972,494.752 676.94,489.04 669.548,489.04 C661.58,489.04 658.076,495.28 658.076,501.76 C658.076,509.824 662.684,514.48 670.508,514.48 C674.684,514.48 676.796,513.568 678.908,512.368 C679.58,511.984 680.156,511.36 680.156,510.592 C680.156,509.488 679.244,508.72 678.236,508.72 L678.236,508.72 Z M669.548,492.736 C672.62,492.736 676.364,494.752 676.652,499.744 L662.492,499.744 C662.78,494.752 666.476,492.736 669.548,492.736 L669.548,492.736 Z M700.716,489.52 C700.716,485.92 704.412,484.048 709.26,484.048 C712.188,484.048 714.78,484.576 716.988,485.344 C717.228,485.44 717.516,485.536 717.756,485.536 C718.956,485.536 719.676,484.48 719.676,483.52 C719.676,482.368 719.004,481.84 718.332,481.6 C715.74,480.64 712.524,480.016 708.78,480.016 C700.668,480.016 696.348,484.528 696.348,489.856 C696.348,501.664 716.748,497.728 716.748,504.832 C716.748,509.008 713.1,510.352 708.348,510.352 C704.22,510.352 701.052,509.344 698.892,508.384 C698.556,508.24 698.268,508.192 697.98,508.192 C696.78,508.192 696.012,509.152 696.012,510.208 C696.012,511.072 696.636,511.888 697.356,512.176 C700.14,513.376 703.98,514.48 708.78,514.48 C716.22,514.48 721.068,510.544 721.068,505.12 C721.068,492.448 700.716,497.824 700.716,489.52 L700.716,489.52 Z M735.14,489.04 C731.732,489.04 729.092,489.808 726.836,490.768 C726.02,491.104 725.588,491.776 725.588,492.592 C725.588,493.648 726.404,494.416 727.364,494.416 C727.556,494.416 727.796,494.368 727.988,494.32 C729.764,493.744 731.684,493.168 734.372,493.168 C738.692,493.168 740.804,494.848 740.804,499.12 L740.804,499.504 L734.996,499.504 C727.508,499.504 723.956,502.768 723.956,507.28 C723.956,511.792 727.604,514.48 731.78,514.48 C736.292,514.48 739.076,512.608 740.804,510.832 L740.804,512.08 C740.804,513.28 741.764,514.24 742.964,514.24 C744.164,514.24 745.172,513.28 745.172,512.08 L745.172,498.496 C745.172,493.792 742.148,489.04 735.14,489.04 L735.14,489.04 Z M733.412,510.64 C729.524,510.64 728.324,508.864 728.324,506.8 C728.324,504.064 731.06,503.008 735.572,503.008 L740.804,503.008 L740.804,507.04 C739.172,508.912 736.388,510.64 733.412,510.64 L733.412,510.64 Z M761.404,482.656 C762.316,482.656 763.036,482.944 763.804,482.944 C764.812,482.944 765.58,482.032 765.58,481.12 C765.58,480.352 765.052,479.728 764.476,479.44 C763.324,478.864 761.884,478.48 760.3,478.48 C756.892,478.48 753.1,480.688 753.1,486.736 L753.1,489.52 L750.268,489.52 C749.212,489.52 748.396,490.336 748.396,491.392 C748.396,492.448 749.212,493.264 750.268,493.264 L753.1,493.264 L753.1,512.08 C753.1,513.28 754.06,514.24 755.26,514.24 C756.508,514.24 757.468,513.28 757.468,512.08 L757.468,493.264 L763.468,493.264 C764.524,493.264 765.34,492.448 765.34,491.392 C765.34,490.336 764.524,489.52 763.468,489.52 L757.468,489.52 L757.468,486.88 C757.468,483.472 759.004,482.656 761.404,482.656 L761.404,482.656 Z M786.804,508.72 C786.468,508.72 786.228,508.768 785.94,508.912 C784.164,509.824 782.34,510.4 779.46,510.4 C774.276,510.4 771.54,507.616 771.06,503.296 L787.332,503.296 C788.676,503.296 789.54,502.336 789.54,501.136 C789.54,494.752 785.508,489.04 778.116,489.04 C770.148,489.04 766.644,495.28 766.644,501.76 C766.644,509.824 771.252,514.48 779.076,514.48 C783.252,514.48 785.364,513.568 787.476,512.368 C788.148,511.984 788.724,511.36 788.724,510.592 C788.724,509.488 787.812,508.72 786.804,508.72 L786.804,508.72 Z M778.116,492.736 C781.188,492.736 784.932,494.752 785.22,499.744 L771.06,499.744 C771.348,494.752 775.044,492.736 778.116,492.736 L778.116,492.736 Z M797.132,508.48 L796.652,508.48 C795.164,508.48 793.964,509.68 793.964,511.168 L793.964,511.456 C793.964,512.944 795.164,514.144 796.652,514.144 L797.132,514.144 C798.62,514.144 799.82,512.944 799.82,511.456 L799.82,511.168 C799.82,509.68 798.62,508.48 797.132,508.48 L797.132,508.48 Z M837.804,496.576 C840.252,495.472 842.508,493.168 842.508,489.184 C842.508,484 838.764,480.496 831.756,480.496 L820.428,480.496 C819.228,480.496 818.268,481.504 818.268,482.704 L818.268,511.84 C818.268,513.04 819.228,514 820.428,514 L832.044,514 C840.924,514 844.38,510.208 844.38,504.592 C844.38,500.176 841.26,497.68 837.804,496.576 L837.804,496.576 Z M838.332,489.52 C838.332,492.64 836.652,494.992 830.604,494.992 L822.636,494.992 L822.636,484.576 L831.42,484.576 C835.788,484.576 838.332,486.544 838.332,489.52 L838.332,489.52 Z M831.612,509.92 L822.636,509.92 L822.636,498.928 L831.66,498.928 C837.18,498.928 840.156,500.608 840.156,504.4 C840.156,507.664 838.188,509.92 831.612,509.92 L831.612,509.92 Z M868.148,508.72 C867.812,508.72 867.572,508.768 867.284,508.912 C865.508,509.824 863.684,510.4 860.804,510.4 C855.62,510.4 852.884,507.616 852.404,503.296 L868.676,503.296 C870.02,503.296 870.884,502.336 870.884,501.136 C870.884,494.752 866.852,489.04 859.46,489.04 C851.492,489.04 847.988,495.28 847.988,501.76 C847.988,509.824 852.596,514.48 860.42,514.48 C864.596,514.48 866.708,513.568 868.82,512.368 C869.492,511.984 870.068,511.36 870.068,510.592 C870.068,509.488 869.156,508.72 868.148,508.72 L868.148,508.72 Z M859.46,492.736 C862.532,492.736 866.276,494.752 866.564,499.744 L852.404,499.744 C852.692,494.752 856.388,492.736 859.46,492.736 L859.46,492.736 Z M890.628,489.52 C890.628,485.92 894.324,484.048 899.172,484.048 C902.1,484.048 904.692,484.576 906.9,485.344 C907.14,485.44 907.428,485.536 907.668,485.536 C908.868,485.536 909.588,484.48 909.588,483.52 C909.588,482.368 908.916,481.84 908.244,481.6 C905.652,480.64 902.436,480.016 898.692,480.016 C890.58,480.016 886.26,484.528 886.26,489.856 C886.26,501.664 906.66,497.728 906.66,504.832 C906.66,509.008 903.012,510.352 898.26,510.352 C894.132,510.352 890.964,509.344 888.804,508.384 C888.468,508.24 888.18,508.192 887.892,508.192 C886.692,508.192 885.924,509.152 885.924,510.208 C885.924,511.072 886.548,511.888 887.268,512.176 C890.052,513.376 893.892,514.48 898.692,514.48 C906.132,514.48 910.98,510.544 910.98,505.12 C910.98,492.448 890.628,497.824 890.628,489.52 L890.628,489.52 Z M934.556,508.72 C934.22,508.72 933.98,508.768 933.692,508.912 C931.916,509.824 930.092,510.4 927.212,510.4 C922.028,510.4 919.292,507.616 918.812,503.296 L935.084,503.296 C936.428,503.296 937.292,502.336 937.292,501.136 C937.292,494.752 933.26,489.04 925.868,489.04 C917.9,489.04 914.396,495.28 914.396,501.76 C914.396,509.824 919.004,514.48 926.828,514.48 C931.004,514.48 933.116,513.568 935.228,512.368 C935.9,511.984 936.476,511.36 936.476,510.592 C936.476,509.488 935.564,508.72 934.556,508.72 L934.556,508.72 Z M925.868,492.736 C928.94,492.736 932.684,494.752 932.972,499.744 L918.812,499.744 C919.1,494.752 922.796,492.736 925.868,492.736 L925.868,492.736 Z M960.388,508.576 C960.004,508.576 959.764,508.624 959.332,508.864 C957.652,509.728 956.308,510.4 953.812,510.4 C948.244,510.4 944.98,506.896 944.98,501.76 C944.98,496.624 948.244,493.12 953.812,493.12 C956.308,493.12 957.652,493.792 959.332,494.656 C959.764,494.896 960.004,494.944 960.388,494.944 C961.396,494.944 962.212,493.936 962.212,493.024 C962.212,492.304 961.828,491.728 961.252,491.344 C959.62,490.288 957.22,489.04 953.428,489.04 C946.612,489.04 940.612,493.744 940.612,501.76 C940.612,509.776 946.612,514.48 953.428,514.48 C957.22,514.48 959.62,513.232 961.252,512.176 C961.828,511.792 962.212,511.216 962.212,510.496 C962.212,509.584 961.396,508.576 960.388,508.576 L960.388,508.576 Z M975.324,514.48 C979.596,514.48 982.236,512.272 984.252,510.064 L984.252,512.032 C984.252,513.28 985.26,514.24 986.46,514.24 C987.66,514.24 988.62,513.28 988.62,512.032 L988.62,491.44 C988.62,490.24 987.66,489.28 986.46,489.28 C985.26,489.28 984.252,490.24 984.252,491.44 L984.252,505.84 C982.332,508.24 979.836,510.448 976.38,510.448 C972.636,510.448 971.1,508.24 971.1,504.592 L971.1,491.44 C971.1,490.24 970.14,489.28 968.94,489.28 C967.74,489.28 966.732,490.24 966.732,491.44 L966.732,505.072 C966.732,510.208 969.852,514.48 975.324,514.48 L975.324,514.48 Z M1007.348,489.04 L1007.108,489.04 C1003.796,489.04 1001.3,491.248 999.572,493.552 L999.572,491.488 C999.572,490.288 998.564,489.28 997.364,489.28 C996.164,489.28 995.204,490.288 995.204,491.488 L995.204,512.08 C995.204,513.28 996.164,514.24 997.364,514.24 C998.564,514.24 999.572,513.28 999.572,512.08 L999.572,497.488 C1001.252,494.992 1003.844,493.264 1007.012,493.264 L1007.252,493.264 C1008.5,493.264 1009.46,492.448 1009.46,491.2 C1009.46,490 1008.548,489.04 1007.348,489.04 L1007.348,489.04 Z M1031.5,508.72 C1031.164,508.72 1030.924,508.768 1030.636,508.912 C1028.86,509.824 1027.036,510.4 1024.156,510.4 C1018.972,510.4 1016.236,507.616 1015.756,503.296 L1032.028,503.296 C1033.372,503.296 1034.236,502.336 1034.236,501.136 C1034.236,494.752 1030.204,489.04 1022.812,489.04 C1014.844,489.04 1011.34,495.28 1011.34,501.76 C1011.34,509.824 1015.948,514.48 1023.772,514.48 C1027.948,514.48 1030.06,513.568 1032.172,512.368 C1032.844,511.984 1033.42,511.36 1033.42,510.592 C1033.42,509.488 1032.508,508.72 1031.5,508.72 L1031.5,508.72 Z M1022.812,492.736 C1025.884,492.736 1029.628,494.752 1029.916,499.744 L1015.756,499.744 C1016.044,494.752 1019.74,492.736 1022.812,492.736 L1022.812,492.736 Z M1041.828,508.48 L1041.348,508.48 C1039.86,508.48 1038.66,509.68 1038.66,511.168 L1038.66,511.456 C1038.66,512.944 1039.86,514.144 1041.348,514.144 L1041.828,514.144 C1043.316,514.144 1044.516,512.944 1044.516,511.456 L1044.516,511.168 C1044.516,509.68 1043.316,508.48 1041.828,508.48 L1041.828,508.48 Z" id="Be-Ready.-Be-Safe.-B" sketch:type="MSShapeGroup"></path>
        </g>
    </g>
</svg>