<?xml version="1.0" encoding="UTF-8" standalone="no"?>
<svg width="675px" height="193px" viewBox="0 0 675 193" version="1.1" xmlns="http://www.w3.org/2000/svg" xmlns:xlink="http://www.w3.org/1999/xlink" xmlns:sketch="http://www.bohemiancoding.com/sketch/ns">
    <!-- Generator: Sketch 3.3.2 (12043) - http://www.bohemiancoding.com/sketch -->
    <title>Group</title>
    <desc>Created with Sketch.</desc>
    <defs></defs>
    <g id="Welcome" stroke="none" stroke-width="1" fill="none" fill-rule="evenodd" sketch:type="MSPage">
        <g id="Desktop-HD---Home" sketch:type="MSArtboardGroup" transform="translate(-400.000000, -329.000000)">
            <g id="Group" sketch:type="MSLayerGroup" transform="translate(400.000000, 329.000000)">
                <text id="SECURITY-ENGINEERING" sketch:type="MSTextLayer" font-family="Museo Sans" font-size="12" font-weight="473" line-spacing="1" letter-spacing="1" fill="#FFFFFF">
                    <tspan x="37" y="192">SECURITY ENGINEERING. AGILE PENTESTING.REALTIME INFRASTRUCTURE MONITORING.</tspan>
                </text>
                <g id="Imported-Layers-Copy-5" transform="translate(287.172000, 0.500000)" fill="#FFFFFF" sketch:type="MSShapeGroup">
                    <path d="M38.6740331,3.96039604 C38.6740331,1.77306931 40.4054696,0 42.5414365,0 L69.6132597,0 C69.6132597,4.37465347 66.1503867,7.92079208 61.878453,7.92079208 L46.4088398,7.92079208 L46.4088398,15.8415842 L58.0110497,15.8415842 C60.1470166,15.8415842 61.878453,17.6146535 61.878453,19.8019802 C61.878453,21.9893069 60.1470166,23.7623762 58.0110497,23.7623762 L46.4088398,23.7623762 L46.4088398,31.6831683 L61.878453,31.6831683 C66.1503867,31.6831683 69.6132597,35.2293069 69.6132597,39.6039604 L42.5658011,39.6039604 C40.4162983,39.6039604 38.6740331,37.819802 38.6740331,35.6186139 L38.6740331,3.96039604" id="Fill-1"></path>
                    <path d="M34.8066298,11.8811881 C34.8066298,5.31960396 29.6119337,0 23.2044199,0 L0,0 C0,4.37465347 3.46325967,7.92079208 7.73480663,7.92079208 L23.2044199,7.92079208 L23.2044199,3.96039604 L30.9392265,11.8811881 L23.2044199,19.8019802 L23.2044199,15.8415842 L3.46790055,15.8625743 C1.5198895,16.0673267 0,17.7528713 0,19.8019802 C0,21.9893069 1.73143646,23.7623762 3.86740331,23.7623762 L23.0721547,23.7623762 C25.1319337,23.7623762 26.9302762,25.3540594 27.0637017,27.4590099 C27.2095028,29.7659406 25.4254696,31.6831683 23.2044199,31.6831683 L7.73480663,31.6831683 C3.46325967,31.6831683 0,35.2293069 0,39.6039604 L23.2044199,39.6039604 C29.6119337,39.6039604 34.8066298,34.2843564 34.8066298,27.7227723 C34.8066298,24.6792079 33.6877901,21.9041584 31.85,19.8019802 C33.6877901,17.699802 34.8066298,14.9247525 34.8066298,11.8811881" id="Fill-2"></path>
                </g>
                <g id="Imported-Layers-Copy-3" transform="translate(652.172000, 100.500000)" fill="#E53935" sketch:type="MSShapeGroup">
                    <path d="M6.81047848,19.9979829 C5.97154574,19.9979829 5.19821529,19.4942337 4.78906953,18.787505 L0.294086289,10.9899915 C-0.0979947016,10.3127598 -0.0979947016,9.47134468 0.294086289,8.79411299 L4.78906953,1.08709035 C5.19821529,0.380361635 5.97154574,0 6.81047848,0 L15.6700579,0 C16.5089906,0 17.282321,0.372062472 17.6914668,1.07889118 L22.18645,8.81051133 C22.578531,9.48774302 22.578531,10.2963615 22.18645,10.9735932 L17.6914668,18.7957042 C17.282321,19.5025329 16.5089906,19.9979829 15.6700579,19.9979829 L6.81047848,19.9979829" id="Fill-1"></path>
                </g>
                <path d="M19.536,127.076 C21.984,125.972 24.24,123.668 24.24,119.684 C24.24,114.5 20.496,110.996 13.488,110.996 L2.16,110.996 C0.96,110.996 0,112.004 0,113.204 L0,142.34 C0,143.54 0.96,144.5 2.16,144.5 L13.776,144.5 C22.656,144.5 26.112,140.708 26.112,135.092 C26.112,130.676 22.992,128.18 19.536,127.076 L19.536,127.076 Z M20.064,120.02 C20.064,123.14 18.384,125.492 12.336,125.492 L4.368,125.492 L4.368,115.076 L13.152,115.076 C17.52,115.076 20.064,117.044 20.064,120.02 L20.064,120.02 Z M13.344,140.42 L4.368,140.42 L4.368,129.428 L13.392,129.428 C18.912,129.428 21.888,131.108 21.888,134.9 C21.888,138.164 19.92,140.42 13.344,140.42 L13.344,140.42 Z M49.88,139.22 C49.544,139.22 49.304,139.268 49.016,139.412 C47.24,140.324 45.416,140.9 42.536,140.9 C37.352,140.9 34.616,138.116 34.136,133.796 L50.408,133.796 C51.752,133.796 52.616,132.836 52.616,131.636 C52.616,125.252 48.584,119.54 41.192,119.54 C33.224,119.54 29.72,125.78 29.72,132.26 C29.72,140.324 34.328,144.98 42.152,144.98 C46.328,144.98 48.44,144.068 50.552,142.868 C51.224,142.484 51.8,141.86 51.8,141.092 C51.8,139.988 50.888,139.22 49.88,139.22 L49.88,139.22 Z M41.192,123.236 C44.264,123.236 48.008,125.252 48.296,130.244 L34.136,130.244 C34.424,125.252 38.12,123.236 41.192,123.236 L41.192,123.236 Z M95.976,140.372 C95.976,137.684 95.304,130.82 89.976,129.428 C94.2,127.988 96.264,124.436 96.264,120.74 C96.264,115.22 92.328,110.996 83.208,110.996 L72.024,110.996 C70.824,110.996 69.864,112.004 69.864,113.204 L69.864,142.58 C69.864,143.78 70.824,144.74 72.024,144.74 C73.224,144.74 74.232,143.78 74.232,142.58 L74.232,131.444 L84.168,131.444 C91.416,131.444 91.608,137.972 91.608,141.14 L91.608,142.58 C91.608,143.876 92.472,144.74 93.816,144.74 C95.016,144.74 95.976,143.78 95.976,142.58 L95.976,140.372 Z M82.92,127.316 L74.232,127.316 L74.232,115.124 L82.68,115.124 C89.784,115.124 91.896,117.524 91.896,121.076 C91.896,125.156 88.296,127.316 82.92,127.316 L82.92,127.316 Z M120.896,139.22 C120.56,139.22 120.32,139.268 120.032,139.412 C118.256,140.324 116.432,140.9 113.552,140.9 C108.368,140.9 105.632,138.116 105.152,133.796 L121.424,133.796 C122.768,133.796 123.632,132.836 123.632,131.636 C123.632,125.252 119.6,119.54 112.208,119.54 C104.24,119.54 100.736,125.78 100.736,132.26 C100.736,140.324 105.344,144.98 113.168,144.98 C117.344,144.98 119.456,144.068 121.568,142.868 C122.24,142.484 122.816,141.86 122.816,141.092 C122.816,139.988 121.904,139.22 120.896,139.22 L120.896,139.22 Z M112.208,123.236 C115.28,123.236 119.024,125.252 119.312,130.244 L105.152,130.244 C105.44,125.252 109.136,123.236 112.208,123.236 L112.208,123.236 Z M137.752,119.54 C134.344,119.54 131.704,120.308 129.448,121.268 C128.632,121.604 128.2,122.276 128.2,123.092 C128.2,124.148 129.016,124.916 129.976,124.916 C130.168,124.916 130.408,124.868 130.6,124.82 C132.376,124.244 134.296,123.668 136.984,123.668 C141.304,123.668 143.416,125.348 143.416,129.62 L143.416,130.004 L137.608,130.004 C130.12,130.004 126.568,133.268 126.568,137.78 C126.568,142.292 130.216,144.98 134.392,144.98 C138.904,144.98 141.688,143.108 143.416,141.332 L143.416,142.58 C143.416,143.78 144.376,144.74 145.576,144.74 C146.776,144.74 147.784,143.78 147.784,142.58 L147.784,128.996 C147.784,124.292 144.76,119.54 137.752,119.54 L137.752,119.54 Z M136.024,141.14 C132.136,141.14 130.936,139.364 130.936,137.3 C130.936,134.564 133.672,133.508 138.184,133.508 L143.416,133.508 L143.416,137.54 C141.784,139.412 139,141.14 136.024,141.14 L136.024,141.14 Z M164.304,119.54 C158.496,119.54 152.688,124.1 152.688,132.26 C152.688,140.42 158.496,144.98 164.304,144.98 C167.664,144.98 170.304,143.636 172.512,141.332 L172.512,142.58 C172.512,143.78 173.472,144.74 174.72,144.74 C175.92,144.74 176.88,143.78 176.88,142.58 L176.88,111.428 C176.88,110.18 175.92,109.22 174.72,109.22 C173.472,109.22 172.512,110.18 172.512,111.428 L172.512,123.188 C170.304,120.884 167.664,119.54 164.304,119.54 L164.304,119.54 Z M164.928,140.9 C160.368,140.9 157.056,137.924 157.056,132.26 C157.056,126.596 160.368,123.62 164.928,123.62 C168.048,123.62 170.64,125.156 172.512,127.22 L172.512,137.3 C170.64,139.364 168.048,140.9 164.928,140.9 L164.928,140.9 Z M204.104,121.988 C204.104,120.788 203.144,119.78 201.944,119.78 C200.984,119.78 200.312,120.356 199.928,121.22 L192.392,139.46 L185,121.124 C184.664,120.356 183.896,119.78 182.984,119.78 C181.784,119.78 180.824,120.788 180.824,121.988 C180.824,122.324 180.92,122.66 181.016,122.9 L190.04,144.884 L186.92,152.9 C186.824,153.14 186.776,153.428 186.776,153.668 C186.776,154.82 187.688,155.78 188.84,155.78 C189.848,155.78 190.472,155.156 190.856,154.292 L203.96,122.804 C204.056,122.564 204.104,122.276 204.104,121.988 L204.104,121.988 Z M209.392,138.98 L208.912,138.98 C207.424,138.98 206.224,140.18 206.224,141.668 L206.224,141.956 C206.224,143.444 207.424,144.644 208.912,144.644 L209.392,144.644 C210.88,144.644 212.08,143.444 212.08,141.956 L212.08,141.668 C212.08,140.18 210.88,138.98 209.392,138.98 L209.392,138.98 Z M250.064,127.076 C252.512,125.972 254.768,123.668 254.768,119.684 C254.768,114.5 251.024,110.996 244.016,110.996 L232.688,110.996 C231.488,110.996 230.528,112.004 230.528,113.204 L230.528,142.34 C230.528,143.54 231.488,144.5 232.688,144.5 L244.304,144.5 C253.184,144.5 256.64,140.708 256.64,135.092 C256.64,130.676 253.52,128.18 250.064,127.076 L250.064,127.076 Z M250.592,120.02 C250.592,123.14 248.912,125.492 242.864,125.492 L234.896,125.492 L234.896,115.076 L243.68,115.076 C248.048,115.076 250.592,117.044 250.592,120.02 L250.592,120.02 Z M243.872,140.42 L234.896,140.42 L234.896,129.428 L243.92,129.428 C249.44,129.428 252.416,131.108 252.416,134.9 C252.416,138.164 250.448,140.42 243.872,140.42 L243.872,140.42 Z M280.408,139.22 C280.072,139.22 279.832,139.268 279.544,139.412 C277.768,140.324 275.944,140.9 273.064,140.9 C267.88,140.9 265.144,138.116 264.664,133.796 L280.936,133.796 C282.28,133.796 283.144,132.836 283.144,131.636 C283.144,125.252 279.112,119.54 271.72,119.54 C263.752,119.54 260.248,125.78 260.248,132.26 C260.248,140.324 264.856,144.98 272.68,144.98 C276.856,144.98 278.968,144.068 281.08,142.868 C281.752,142.484 282.328,141.86 282.328,141.092 C282.328,139.988 281.416,139.22 280.408,139.22 L280.408,139.22 Z M271.72,123.236 C274.792,123.236 278.536,125.252 278.824,130.244 L264.664,130.244 C264.952,125.252 268.648,123.236 271.72,123.236 L271.72,123.236 Z M302.888,120.02 C302.888,116.42 306.584,114.548 311.432,114.548 C314.36,114.548 316.952,115.076 319.16,115.844 C319.4,115.94 319.688,116.036 319.928,116.036 C321.128,116.036 321.848,114.98 321.848,114.02 C321.848,112.868 321.176,112.34 320.504,112.1 C317.912,111.14 314.696,110.516 310.952,110.516 C302.84,110.516 298.52,115.028 298.52,120.356 C298.52,132.164 318.92,128.228 318.92,135.332 C318.92,139.508 315.272,140.852 310.52,140.852 C306.392,140.852 303.224,139.844 301.064,138.884 C300.728,138.74 300.44,138.692 300.152,138.692 C298.952,138.692 298.184,139.652 298.184,140.708 C298.184,141.572 298.808,142.388 299.528,142.676 C302.312,143.876 306.152,144.98 310.952,144.98 C318.392,144.98 323.24,141.044 323.24,135.62 C323.24,122.948 302.888,128.324 302.888,120.02 L302.888,120.02 Z M337.312,119.54 C333.904,119.54 331.264,120.308 329.008,121.268 C328.192,121.604 327.76,122.276 327.76,123.092 C327.76,124.148 328.576,124.916 329.536,124.916 C329.728,124.916 329.968,124.868 330.16,124.82 C331.936,124.244 333.856,123.668 336.544,123.668 C340.864,123.668 342.976,125.348 342.976,129.62 L342.976,130.004 L337.168,130.004 C329.68,130.004 326.128,133.268 326.128,137.78 C326.128,142.292 329.776,144.98 333.952,144.98 C338.464,144.98 341.248,143.108 342.976,141.332 L342.976,142.58 C342.976,143.78 343.936,144.74 345.136,144.74 C346.336,144.74 347.344,143.78 347.344,142.58 L347.344,128.996 C347.344,124.292 344.32,119.54 337.312,119.54 L337.312,119.54 Z M335.584,141.14 C331.696,141.14 330.496,139.364 330.496,137.3 C330.496,134.564 333.232,133.508 337.744,133.508 L342.976,133.508 L342.976,137.54 C341.344,139.412 338.56,141.14 335.584,141.14 L335.584,141.14 Z M363.576,113.156 C364.488,113.156 365.208,113.444 365.976,113.444 C366.984,113.444 367.752,112.532 367.752,111.62 C367.752,110.852 367.224,110.228 366.648,109.94 C365.496,109.364 364.056,108.98 362.472,108.98 C359.064,108.98 355.272,111.188 355.272,117.236 L355.272,120.02 L352.44,120.02 C351.384,120.02 350.568,120.836 350.568,121.892 C350.568,122.948 351.384,123.764 352.44,123.764 L355.272,123.764 L355.272,142.58 C355.272,143.78 356.232,144.74 357.432,144.74 C358.68,144.74 359.64,143.78 359.64,142.58 L359.64,123.764 L365.64,123.764 C366.696,123.764 367.512,122.948 367.512,121.892 C367.512,120.836 366.696,120.02 365.64,120.02 L359.64,120.02 L359.64,117.38 C359.64,113.972 361.176,113.156 363.576,113.156 L363.576,113.156 Z M388.976,139.22 C388.64,139.22 388.4,139.268 388.112,139.412 C386.336,140.324 384.512,140.9 381.632,140.9 C376.448,140.9 373.712,138.116 373.232,133.796 L389.504,133.796 C390.848,133.796 391.712,132.836 391.712,131.636 C391.712,125.252 387.68,119.54 380.288,119.54 C372.32,119.54 368.816,125.78 368.816,132.26 C368.816,140.324 373.424,144.98 381.248,144.98 C385.424,144.98 387.536,144.068 389.648,142.868 C390.32,142.484 390.896,141.86 390.896,141.092 C390.896,139.988 389.984,139.22 388.976,139.22 L388.976,139.22 Z M380.288,123.236 C383.36,123.236 387.104,125.252 387.392,130.244 L373.232,130.244 C373.52,125.252 377.216,123.236 380.288,123.236 L380.288,123.236 Z M399.304,138.98 L398.824,138.98 C397.336,138.98 396.136,140.18 396.136,141.668 L396.136,141.956 C396.136,143.444 397.336,144.644 398.824,144.644 L399.304,144.644 C400.792,144.644 401.992,143.444 401.992,141.956 L401.992,141.668 C401.992,140.18 400.792,138.98 399.304,138.98 L399.304,138.98 Z M439.976,127.076 C442.424,125.972 444.68,123.668 444.68,119.684 C444.68,114.5 440.936,110.996 433.928,110.996 L422.6,110.996 C421.4,110.996 420.44,112.004 420.44,113.204 L420.44,142.34 C420.44,143.54 421.4,144.5 422.6,144.5 L434.216,144.5 C443.096,144.5 446.552,140.708 446.552,135.092 C446.552,130.676 443.432,128.18 439.976,127.076 L439.976,127.076 Z M440.504,120.02 C440.504,123.14 438.824,125.492 432.776,125.492 L424.808,125.492 L424.808,115.076 L433.592,115.076 C437.96,115.076 440.504,117.044 440.504,120.02 L440.504,120.02 Z M433.784,140.42 L424.808,140.42 L424.808,129.428 L433.832,129.428 C439.352,129.428 442.328,131.108 442.328,134.9 C442.328,138.164 440.36,140.42 433.784,140.42 L433.784,140.42 Z M470.32,139.22 C469.984,139.22 469.744,139.268 469.456,139.412 C467.68,140.324 465.856,140.9 462.976,140.9 C457.792,140.9 455.056,138.116 454.576,133.796 L470.848,133.796 C472.192,133.796 473.056,132.836 473.056,131.636 C473.056,125.252 469.024,119.54 461.632,119.54 C453.664,119.54 450.16,125.78 450.16,132.26 C450.16,140.324 454.768,144.98 462.592,144.98 C466.768,144.98 468.88,144.068 470.992,142.868 C471.664,142.484 472.24,141.86 472.24,141.092 C472.24,139.988 471.328,139.22 470.32,139.22 L470.32,139.22 Z M461.632,123.236 C464.704,123.236 468.448,125.252 468.736,130.244 L454.576,130.244 C454.864,125.252 458.56,123.236 461.632,123.236 L461.632,123.236 Z M492.8,120.02 C492.8,116.42 496.496,114.548 501.344,114.548 C504.272,114.548 506.864,115.076 509.072,115.844 C509.312,115.94 509.6,116.036 509.84,116.036 C511.04,116.036 511.76,114.98 511.76,114.02 C511.76,112.868 511.088,112.34 510.416,112.1 C507.824,111.14 504.608,110.516 500.864,110.516 C492.752,110.516 488.432,115.028 488.432,120.356 C488.432,132.164 508.832,128.228 508.832,135.332 C508.832,139.508 505.184,140.852 500.432,140.852 C496.304,140.852 493.136,139.844 490.976,138.884 C490.64,138.74 490.352,138.692 490.064,138.692 C488.864,138.692 488.096,139.652 488.096,140.708 C488.096,141.572 488.72,142.388 489.44,142.676 C492.224,143.876 496.064,144.98 500.864,144.98 C508.304,144.98 513.152,141.044 513.152,135.62 C513.152,122.948 492.8,128.324 492.8,120.02 L492.8,120.02 Z M536.728,139.22 C536.392,139.22 536.152,139.268 535.864,139.412 C534.088,140.324 532.264,140.9 529.384,140.9 C524.2,140.9 521.464,138.116 520.984,133.796 L537.256,133.796 C538.6,133.796 539.464,132.836 539.464,131.636 C539.464,125.252 535.432,119.54 528.04,119.54 C520.072,119.54 516.568,125.78 516.568,132.26 C516.568,140.324 521.176,144.98 529,144.98 C533.176,144.98 535.288,144.068 537.4,142.868 C538.072,142.484 538.648,141.86 538.648,141.092 C538.648,139.988 537.736,139.22 536.728,139.22 L536.728,139.22 Z M528.04,123.236 C531.112,123.236 534.856,125.252 535.144,130.244 L520.984,130.244 C521.272,125.252 524.968,123.236 528.04,123.236 L528.04,123.236 Z M562.56,139.076 C562.176,139.076 561.936,139.124 561.504,139.364 C559.824,140.228 558.48,140.9 555.984,140.9 C550.416,140.9 547.152,137.396 547.152,132.26 C547.152,127.124 550.416,123.62 555.984,123.62 C558.48,123.62 559.824,124.292 561.504,125.156 C561.936,125.396 562.176,125.444 562.56,125.444 C563.568,125.444 564.384,124.436 564.384,123.524 C564.384,122.804 564,122.228 563.424,121.844 C561.792,120.788 559.392,119.54 555.6,119.54 C548.784,119.54 542.784,124.244 542.784,132.26 C542.784,140.276 548.784,144.98 555.6,144.98 C559.392,144.98 561.792,143.732 563.424,142.676 C564,142.292 564.384,141.716 564.384,140.996 C564.384,140.084 563.568,139.076 562.56,139.076 L562.56,139.076 Z M577.496,144.98 C581.768,144.98 584.408,142.772 586.424,140.564 L586.424,142.532 C586.424,143.78 587.432,144.74 588.632,144.74 C589.832,144.74 590.792,143.78 590.792,142.532 L590.792,121.94 C590.792,120.74 589.832,119.78 588.632,119.78 C587.432,119.78 586.424,120.74 586.424,121.94 L586.424,136.34 C584.504,138.74 582.008,140.948 578.552,140.948 C574.808,140.948 573.272,138.74 573.272,135.092 L573.272,121.94 C573.272,120.74 572.312,119.78 571.112,119.78 C569.912,119.78 568.904,120.74 568.904,121.94 L568.904,135.572 C568.904,140.708 572.024,144.98 577.496,144.98 L577.496,144.98 Z M609.52,119.54 L609.28,119.54 C605.968,119.54 603.472,121.748 601.744,124.052 L601.744,121.988 C601.744,120.788 600.736,119.78 599.536,119.78 C598.336,119.78 597.376,120.788 597.376,121.988 L597.376,142.58 C597.376,143.78 598.336,144.74 599.536,144.74 C600.736,144.74 601.744,143.78 601.744,142.58 L601.744,127.988 C603.424,125.492 606.016,123.764 609.184,123.764 L609.424,123.764 C610.672,123.764 611.632,122.948 611.632,121.7 C611.632,120.5 610.72,119.54 609.52,119.54 L609.52,119.54 Z M633.672,139.22 C633.336,139.22 633.096,139.268 632.808,139.412 C631.032,140.324 629.208,140.9 626.328,140.9 C621.144,140.9 618.408,138.116 617.928,133.796 L634.2,133.796 C635.544,133.796 636.408,132.836 636.408,131.636 C636.408,125.252 632.376,119.54 624.984,119.54 C617.016,119.54 613.512,125.78 613.512,132.26 C613.512,140.324 618.12,144.98 625.944,144.98 C630.12,144.98 632.232,144.068 634.344,142.868 C635.016,142.484 635.592,141.86 635.592,141.092 C635.592,139.988 634.68,139.22 633.672,139.22 L633.672,139.22 Z M624.984,123.236 C628.056,123.236 631.8,125.252 632.088,130.244 L617.928,130.244 C618.216,125.252 621.912,123.236 624.984,123.236 L624.984,123.236 Z M644,138.98 L643.52,138.98 C642.032,138.98 640.832,140.18 640.832,141.668 L640.832,141.956 C640.832,143.444 642.032,144.644 643.52,144.644 L644,144.644 C645.488,144.644 646.688,143.444 646.688,141.956 L646.688,141.668 C646.688,140.18 645.488,138.98 644,138.98 L644,138.98 Z" id="Be-Ready.-Be-Safe.-B" fill="#FFFFFF" sketch:type="MSShapeGroup"></path>
            </g>
        </g>
    </g>
</svg>