<?xml version="1.0" encoding="UTF-8" standalone="no"?>
<svg width="70px" height="40px" viewBox="0 0 70 40" version="1.1" xmlns="http://www.w3.org/2000/svg" xmlns:xlink="http://www.w3.org/1999/xlink" xmlns:sketch="http://www.bohemiancoding.com/sketch/ns">
    <!-- Generator: Sketch 3.3.2 (12043) - http://www.bohemiancoding.com/sketch -->
    <title>Imported Layers Copy 5</title>
    <desc>Created with Sketch.</desc>
    <defs></defs>
    <g id="Welcome" stroke="none" stroke-width="1" fill="none" fill-rule="evenodd" sketch:type="MSPage">
        <g id="Desktop-HD---Home" sketch:type="MSArtboardGroup" transform="translate(-685.000000, -370.000000)" fill="#FFFFFF">
            <g id="Imported-Layers-Copy-5" sketch:type="MSLayerGroup" transform="translate(685.000000, 370.000000)">
                <path d="M38.6740331,3.96039604 C38.6740331,1.77306931 40.4054696,0 42.5414365,0 L69.6132597,0 C69.6132597,4.37465347 66.1503867,7.92079208 61.878453,7.92079208 L46.4088398,7.92079208 L46.4088398,15.8415842 L58.0110497,15.8415842 C60.1470166,15.8415842 61.878453,17.6146535 61.878453,19.8019802 C61.878453,21.9893069 60.1470166,23.7623762 58.0110497,23.7623762 L46.4088398,23.7623762 L46.4088398,31.6831683 L61.878453,31.6831683 C66.1503867,31.6831683 69.6132597,35.2293069 69.6132597,39.6039604 L42.5658011,39.6039604 C40.4162983,39.6039604 38.6740331,37.819802 38.6740331,35.6186139 L38.6740331,3.96039604" id="Fill-1" sketch:type="MSShapeGroup"></path>
                <path d="M34.8066298,11.8811881 C34.8066298,5.31960396 29.6119337,0 23.2044199,0 L0,0 C0,4.37465347 3.46325967,7.92079208 7.73480663,7.92079208 L23.2044199,7.92079208 L23.2044199,3.96039604 L30.9392265,11.8811881 L23.2044199,19.8019802 L23.2044199,15.8415842 L3.46790055,15.8625743 C1.5198895,16.0673267 0,17.7528713 0,19.8019802 C0,21.9893069 1.73143646,23.7623762 3.86740331,23.7623762 L23.0721547,23.7623762 C25.1319337,23.7623762 26.9302762,25.3540594 27.0637017,27.4590099 C27.2095028,29.7659406 25.4254696,31.6831683 23.2044199,31.6831683 L7.73480663,31.6831683 C3.46325967,31.6831683 0,35.2293069 0,39.6039604 L23.2044199,39.6039604 C29.6119337,39.6039604 34.8066298,34.2843564 34.8066298,27.7227723 C34.8066298,24.6792079 33.6877901,21.9041584 31.85,19.8019802 C33.6877901,17.699802 34.8066298,14.9247525 34.8066298,11.8811881" id="Fill-2" sketch:type="MSShapeGroup"></path>
            </g>
        </g>
    </g>
</svg>